HIERARCHY
ROOT Hips
{
  OFFSET -290.028 90.275 1548.12
  CHANNELS 6 Xposition Yposition Zposition Zrotation Xrotation Yrotation
  JOINT Spine
  {
    OFFSET 0 8 0
    CHANNELS 6 Xposition Yposition Zposition Zrotation Xrotation Yrotation
    JOINT Spine1
    {
      OFFSET 0 8 0
      CHANNELS 6 Xposition Yposition Zposition Zrotation Xrotation Yrotation
      JOINT Spine2
      {
        OFFSET 0 8 0
        CHANNELS 6 Xposition Yposition Zposition Zrotation Xrotation Yrotation
        JOINT Spine3
        {
          OFFSET 0 8 0
          CHANNELS 6 Xposition Yposition Zposition Zrotation Xrotation Yrotation
          JOINT Neck
          {
            OFFSET 0 17 0
            CHANNELS 6 Xposition Yposition Zposition Zrotation Xrotation Yrotation
            JOINT Head
            {
              OFFSET 0 10.8 0
              CHANNELS 6 Xposition Yposition Zposition Zrotation Xrotation Yrotation
              End Site
              {
                OFFSET 0 20.25 0
              }
            }
          }
          JOINT LeftShoulder
          {
            OFFSET 5 17 0
            CHANNELS 6 Xposition Yposition Zposition Zrotation Xrotation Yrotation
            JOINT LeftShoulder2
            {
              OFFSET 6.45 0 0
              CHANNELS 6 Xposition Yposition Zposition Zrotation Xrotation Yrotation
              JOINT LeftArm
              {
                OFFSET 6.45 0 0
                CHANNELS 6 Xposition Yposition Zposition Zrotation Xrotation Yrotation
                JOINT LeftForeArm
                {
                  OFFSET 0 -32.4 -2
                  CHANNELS 6 Xposition Yposition Zposition Zrotation Xrotation Yrotation
                  JOINT LeftHand
                  {
                    OFFSET 0 -25.65 2
                    CHANNELS 6 Xposition Yposition Zposition Zrotation Xrotation Yrotation
                    JOINT LeftHandThumb1
                    {
                      OFFSET -0.5 -1.5 2.65
                      CHANNELS 6 Xposition Yposition Zposition Zrotation Xrotation Yrotation
                      JOINT LeftHandThumb2
                      {
                        OFFSET 0 -3.8 3.7
                        CHANNELS 6 Xposition Yposition Zposition Zrotation Xrotation Yrotation
                        JOINT LeftHandThumb3
                        {
                          OFFSET 0 -3 2.7
                          CHANNELS 6 Xposition Yposition Zposition Zrotation Xrotation Yrotation
                          End Site
                          {
                            OFFSET 0 -2.3 1.8
                          }
                        }
                      }
                    }
                    JOINT LeftHandIndex
                    {
                      OFFSET 0 -1.9 1.6
                      CHANNELS 6 Xposition Yposition Zposition Zrotation Xrotation Yrotation
                      JOINT LeftHandIndex1
                      {
                        OFFSET 0 -8.3 1.9
                        CHANNELS 6 Xposition Yposition Zposition Zrotation Xrotation Yrotation
                        JOINT LeftHandIndex2
                        {
                          OFFSET 0 -4.5 0
                          CHANNELS 6 Xposition Yposition Zposition Zrotation Xrotation Yrotation
                          JOINT LeftHandIndex3
                          {
                            OFFSET 0 -3.4 0
                            CHANNELS 6 Xposition Yposition Zposition Zrotation Xrotation Yrotation
                            End Site
                            {
                              OFFSET 0 -2.6 0
                            }
                          }
                        }
                      }
                    }
                    JOINT LeftHandMiddle
                    {
                      OFFSET -0.25 -2.2 0.4
                      CHANNELS 6 Xposition Yposition Zposition Zrotation Xrotation Yrotation
                      JOINT LeftHandMiddle1
                      {
                        OFFSET 0 -8.3 1
                        CHANNELS 6 Xposition Yposition Zposition Zrotation Xrotation Yrotation
                        JOINT LeftHandMiddle2
                        {
                          OFFSET 0 -4.65 0
                          CHANNELS 6 Xposition Yposition Zposition Zrotation Xrotation Yrotation
                          JOINT LeftHandMiddle3
                          {
                            OFFSET 0 -3.3 0
                            CHANNELS 6 Xposition Yposition Zposition Zrotation Xrotation Yrotation
                            End Site
                            {
                              OFFSET 0 -2.7 0
                            }
                          }
                        }
                      }
                    }
                    JOINT LeftHandRing
                    {
                      OFFSET -0.5 -2.15 -0.8
                      CHANNELS 6 Xposition Yposition Zposition Zrotation Xrotation Yrotation
                      JOINT LeftHandRing1
                      {
                        OFFSET 0 -7.75 -0.2
                        CHANNELS 6 Xposition Yposition Zposition Zrotation Xrotation Yrotation
                        JOINT LeftHandRing2
                        {
                          OFFSET 0 -3.8 0
                          CHANNELS 6 Xposition Yposition Zposition Zrotation Xrotation Yrotation
                          JOINT LeftHandRing3
                          {
                            OFFSET 0 -3.4 0
                            CHANNELS 6 Xposition Yposition Zposition Zrotation Xrotation Yrotation
                            End Site
                            {
                              OFFSET 0 -2.6 0
                            }
                          }
                        }
                      }
                    }
                    JOINT LeftHandPinky
                    {
                      OFFSET -0.75 -1.75 -1.85
                      CHANNELS 6 Xposition Yposition Zposition Zrotation Xrotation Yrotation
                      JOINT LeftHandPinky1
                      {
                        OFFSET 0 -7.15 -1
                        CHANNELS 6 Xposition Yposition Zposition Zrotation Xrotation Yrotation
                        JOINT LeftHandPinky2
                        {
                          OFFSET 0 -3 0
                          CHANNELS 6 Xposition Yposition Zposition Zrotation Xrotation Yrotation
                          JOINT LeftHandPinky3
                          {
                            OFFSET 0 -2.35 0
                            CHANNELS 6 Xposition Yposition Zposition Zrotation Xrotation Yrotation
                            End Site
                            {
                              OFFSET 0 -2.1 0
                            }
                          }
                        }
                      }
                    }
                  }
                }
              }
            }
          }
          JOINT RightShoulder
          {
            OFFSET -5 17 0
            CHANNELS 6 Xposition Yposition Zposition Zrotation Xrotation Yrotation
            JOINT RightShoulder2
            {
              OFFSET -6.45 0 0
              CHANNELS 6 Xposition Yposition Zposition Zrotation Xrotation Yrotation
              JOINT RightArm
              {
                OFFSET -6.45 0 0
                CHANNELS 6 Xposition Yposition Zposition Zrotation Xrotation Yrotation
                JOINT RightForeArm
                {
                  OFFSET 0 -32.4 -2
                  CHANNELS 6 Xposition Yposition Zposition Zrotation Xrotation Yrotation
                  JOINT RightHand
                  {
                    OFFSET 0 -25.65 2
                    CHANNELS 6 Xposition Yposition Zposition Zrotation Xrotation Yrotation
                    JOINT RightHandThumb1
                    {
                      OFFSET 0.5 -1.5 2.65
                      CHANNELS 6 Xposition Yposition Zposition Zrotation Xrotation Yrotation
                      JOINT RightHandThumb2
                      {
                        OFFSET 0 -3.8 3.7
                        CHANNELS 6 Xposition Yposition Zposition Zrotation Xrotation Yrotation
                        JOINT RightHandThumb3
                        {
                          OFFSET 0 -3 2.7
                          CHANNELS 6 Xposition Yposition Zposition Zrotation Xrotation Yrotation
                          End Site
                          {
                            OFFSET 0 -2.3 1.8
                          }
                        }
                      }
                    }
                    JOINT RightHandIndex
                    {
                      OFFSET 0 -1.9 1.6
                      CHANNELS 6 Xposition Yposition Zposition Zrotation Xrotation Yrotation
                      JOINT RightHandIndex1
                      {
                        OFFSET 0 -8.3 1.9
                        CHANNELS 6 Xposition Yposition Zposition Zrotation Xrotation Yrotation
                        JOINT RightHandIndex2
                        {
                          OFFSET 0 -4.5 0
                          CHANNELS 6 Xposition Yposition Zposition Zrotation Xrotation Yrotation
                          JOINT RightHandIndex3
                          {
                            OFFSET 0 -3.4 0
                            CHANNELS 6 Xposition Yposition Zposition Zrotation Xrotation Yrotation
                            End Site
                            {
                              OFFSET 0 -2.6 0
                            }
                          }
                        }
                      }
                    }
                    JOINT RightHandMiddle
                    {
                      OFFSET 0.25 -2.2 0.4
                      CHANNELS 6 Xposition Yposition Zposition Zrotation Xrotation Yrotation
                      JOINT RightHandMiddle1
                      {
                        OFFSET 0 -8.3 1
                        CHANNELS 6 Xposition Yposition Zposition Zrotation Xrotation Yrotation
                        JOINT RightHandMiddle2
                        {
                          OFFSET 0 -4.65 0
                          CHANNELS 6 Xposition Yposition Zposition Zrotation Xrotation Yrotation
                          JOINT RightHandMiddle3
                          {
                            OFFSET 0 -3.3 0
                            CHANNELS 6 Xposition Yposition Zposition Zrotation Xrotation Yrotation
                            End Site
                            {
                              OFFSET 0 -2.7 0
                            }
                          }
                        }
                      }
                    }
                    JOINT RightHandRing
                    {
                      OFFSET 0.5 -2.15 -0.8
                      CHANNELS 6 Xposition Yposition Zposition Zrotation Xrotation Yrotation
                      JOINT RightHandRing1
                      {
                        OFFSET 0 -7.75 -0.2
                        CHANNELS 6 Xposition Yposition Zposition Zrotation Xrotation Yrotation
                        JOINT RightHandRing2
                        {
                          OFFSET 0 -3.8 0
                          CHANNELS 6 Xposition Yposition Zposition Zrotation Xrotation Yrotation
                          JOINT RightHandRing3
                          {
                            OFFSET 0 -3.4 0
                            CHANNELS 6 Xposition Yposition Zposition Zrotation Xrotation Yrotation
                            End Site
                            {
                              OFFSET 0 -2.6 0
                            }
                          }
                        }
                      }
                    }
                    JOINT RightHandPinky
                    {
                      OFFSET 0.75 -1.75 -1.85
                      CHANNELS 6 Xposition Yposition Zposition Zrotation Xrotation Yrotation
                      JOINT RightHandPinky1
                      {
                        OFFSET 0 -7.15 -1
                        CHANNELS 6 Xposition Yposition Zposition Zrotation Xrotation Yrotation
                        JOINT RightHandPinky2
                        {
                          OFFSET 0 -3 0
                          CHANNELS 6 Xposition Yposition Zposition Zrotation Xrotation Yrotation
                          JOINT RightHandPinky3
                          {
                            OFFSET 0 -2.35 0
                            CHANNELS 6 Xposition Yposition Zposition Zrotation Xrotation Yrotation
                            End Site
                            {
                              OFFSET 0 -2.1 0
                            }
                          }
                        }
                      }
                    }
                  }
                }
              }
            }
          }
        }
      }
    }
  }
  JOINT LeftUpLeg
  {
    OFFSET 8 0 0
    CHANNELS 6 Xposition Yposition Zposition Zrotation Xrotation Yrotation
    JOINT LeftLeg
    {
      OFFSET 0 -45 -1
      CHANNELS 6 Xposition Yposition Zposition Zrotation Xrotation Yrotation
      JOINT LeftFoot
      {
        OFFSET 0 -41 -2
        CHANNELS 6 Xposition Yposition Zposition Zrotation Xrotation Yrotation
        JOINT LeftToeBase
        {
          OFFSET 0 -7.5 12.5
          CHANNELS 6 Xposition Yposition Zposition Zrotation Xrotation Yrotation
          JOINT LeftFootToe
          {
            OFFSET 0 0 4
            CHANNELS 6 Xposition Yposition Zposition Zrotation Xrotation Yrotation
            End Site
            {
              OFFSET 0 0 0
            }
          }
        }
      }
    }
  }
  JOINT RightUpLeg
  {
    OFFSET -8 0 0
    CHANNELS 6 Xposition Yposition Zposition Zrotation Xrotation Yrotation
    JOINT RightLeg
    {
      OFFSET 0 -45 -1
      CHANNELS 6 Xposition Yposition Zposition Zrotation Xrotation Yrotation
      JOINT RightFoot
      {
        OFFSET 0 -41 -2
        CHANNELS 6 Xposition Yposition Zposition Zrotation Xrotation Yrotation
        JOINT RightToeBase
        {
          OFFSET 0 -7.5 12.5
          CHANNELS 6 Xposition Yposition Zposition Zrotation Xrotation Yrotation
          JOINT RightFootToe
          {
            OFFSET 0 0 4
            CHANNELS 6 Xposition Yposition Zposition Zrotation Xrotation Yrotation
            End Site
            {
              OFFSET 0 0 0
            }
          }
        }
      }
    }
  }
}
MOTION
Frames:	3
Frame Time:	0.0111111
-277.117 90.9045 1549.5 0.388931 -5.39411 136.631 0 8 0 8.09737 23.2888 3.05826 0 8 2.27374e-13 -1.15932 7.51142 1.1829 -1.13687e-13 8 -2.27374e-13 -0.559409 3.76261 0.571618 0 8 -2.27374e-13 -0.555148 3.75403 0.570291 -3.41061e-13 17 -2.27374e-13 -1.20144 3.5522 -3.09949 0 10.8 0 -2.51336 8.39016 -7.15631 5 17 -2.27374e-13 -1.48466 1.5605 -2.49157 6.45 0 0 1.17002 -0.160584 2.80422 6.45 1.13687e-13 2.27374e-13 -0.968823 10.5262 30.1828 0 -32.4 -2 -16.5458 -81.0517 -90.183 -2.27374e-13 -25.65 2 15.5479 -23.7918 -21.4518 -0.5 -1.5 2.65 -27.9213 -57.4564 122.864 0 -3.8 3.7 -0.0170877 32.2059 0.000334924 5.68434e-14 -3 2.7 -0.00694583 30.1835 0.00651733 0 -1.9 1.6 -3.18055e-15 0 -0 0 -8.3 1.9 -26.184 14.4235 3.92383 0 -4.5 0 -57.0157 0.00173322 -0.00576723 2.27374e-13 -3.4 5.68434e-14 -39.6342 0.00493523 -0.0020167 -0.25 -2.2 0.4 -3.18055e-15 0 -0 0 -8.3 1 -34.6849 15.5897 6.32655 2.27374e-13 -4.65 -5.68434e-14 -71.9163 0.00093981 -0.000300696 -2.27374e-13 -3.3 -5.68434e-14 -90.0002 -1.27222e-14 2.22639e-14 -0.5 -2.15 -0.8 -3.18055e-15 0 -0 2.27374e-13 -7.75 -0.2 -71.1702 0.204202 10.2449 0 -3.8 -5.68434e-14 -1.77361 -0.00271821 0.00188733 0 -3.4 -1.13687e-13 -90.0002 -0.00115967 2.62396e-14 -0.75 -1.75 -1.85 -3.18055e-15 0 -0 -2.27374e-13 -7.15 -1 -49.4694 11.6838 8.51262 0 -3 5.68434e-14 -62.7634 0.00192598 -0.000756585 0 -2.35 5.68434e-14 -90.0002 -1.90833e-14 1.90833e-14 -5 17 0 -1.18564 0.422644 5.37468 -6.45 0 0 -2.0181 0.544829 -0.356123 -6.45 0 0 -67.4936 -30.9533 -0.842294 -5.68434e-14 -32.4 -2 -5.81132 -63.742 -10.4982 -5.68434e-14 -25.65 2 -10.3545 16.4269 5.59806 0.5 -1.5 2.65 21.3578 15.0091 9.95524 0 -3.8 3.7 1.11236 11.1593 -0.36076 1.13687e-13 -3 2.7 0.0464441 0.688422 -0.0628421 -2.55795e-13 -1.9 1.6 2.38542e-15 -9.54166e-15 -0 0 -8.3 1.9 29.5062 7.72656 -2.1753 0 -4.5 -2.27374e-13 9.71905 -0.00144025 -0.00176498 0 -3.4 -2.27374e-13 8.56409 -0.00201185 -0.00167755 0.25 -2.2 0.4 2.38542e-15 -9.54166e-15 -0 0 -8.3 1 32.1974 6.38958 -2.90762 -1.13687e-13 -4.65 0 60.9406 -0.00411399 -0.000945667 0 -3.3 4.54747e-13 42.8804 -0.00681983 0.00599052 0.5 -2.15 -0.8 2.38542e-15 -9.54166e-15 -0 -1.42109e-13 -7.75 -0.2 51.8456 9.50018 -8.23342 -1.13687e-13 -3.8 -2.27374e-13 62.1085 0.00317121 0.000874689 0 -3.4 2.27374e-13 43.9071 -0.00209609 -4.72813e-05 0.75 -1.75 -1.85 2.38542e-15 -9.54166e-15 -0 0 -7.15 -1 64.2253 -6.63978 -1.31926 1.13687e-13 -3 0 25.117 0.000772096 -0.0035294 0 -2.35 2.27374e-13 19.1287 0.0020623 -0.00321947 8 2.84217e-14 2.27374e-13 3.20491 -21.9048 -38.9175 0 -45 -1 0.440876 20.0496 -3.46424 2.27374e-13 -41 -2 -10.2159 -6.27055 24.321 2.27374e-13 -7.5 12.5 -1.98626e-31 1.78906e-15 6.36111e-15 0 0 4 14.2409 -4.37126 83.0009 -8 -4.26326e-14 2.27374e-13 3.98894 -13.0896 -19.4954 -2.27374e-13 -45 -1 0.159313 21.9912 -1.144 0 -41 -2 -3.10463 -13.1362 14.0249 0 -7.5 12.5 -7.91826e-16 -0.00185781 6.36111e-15 0 -1.42664e-14 4 2.96608 10.2125 56.039 
-277.112 90.906 1549.51 0.363472 -5.39902 136.641 1.13687e-13 8 2.27374e-13 8.10685 23.2972 3.06454 0 8 -2.27374e-13 -1.15673 7.51197 1.18279 0 8 -2.27374e-13 -0.558637 3.76309 0.57108 0 8 0 -0.554304 3.75467 0.569754 -3.41061e-13 17 0 -1.19897 3.51898 -3.12062 0 10.8 0 -2.50859 8.31297 -7.20654 5 17 0 -1.48466 1.5605 -2.49157 6.45 0 -2.27374e-13 1.17002 -0.160584 2.80422 6.45 0 2.27374e-13 -0.968823 10.5262 30.1828 0 -32.4 -2 -16.5458 -81.0517 -90.183 -2.27374e-13 -25.65 2 15.5209 -23.7943 -21.4364 -0.5 -1.5 2.65 -27.8735 -57.4539 122.896 2.84217e-14 -3.8 3.7 -0.0170958 32.2372 0.000323711 0 -3 2.7 -0.00701286 30.2118 0.0065139 0 -1.9 1.6 3.18055e-15 0 -1.59028e-15 0 -8.3 1.9 -26.1949 14.4235 3.9235 2.27374e-13 -4.5 5.68434e-14 -56.9845 0.0017309 -0.00576024 2.27374e-13 -3.4 1.13687e-13 -39.6097 0.00491963 -0.0020167 -0.25 -2.2 0.4 3.18055e-15 0 -1.59028e-15 0 -8.3 1 -34.6854 15.5892 6.32738 2.27374e-13 -4.65 -5.68434e-14 -71.8993 0.00093981 -0.000300696 0 -3.3 0 -90.0002 -4.45278e-14 5.24792e-14 -0.5 -2.15 -0.8 3.18055e-15 0 -1.59028e-15 2.27374e-13 -7.75 -0.2 -71.1762 0.197294 10.2437 0 -3.8 -1.13687e-13 -1.77359 -0.002707 0.00188693 2.27374e-13 -3.4 5.68434e-14 -90.0002 -0.00115967 2.54444e-14 -0.75 -1.75 -1.85 3.18055e-15 0 -1.59028e-15 -3.41061e-13 -7.15 -1 -49.4653 11.6855 8.51246 -2.27374e-13 -3 1.13687e-13 -62.7609 0.00191404 -0.000756585 -1.13687e-13 -2.35 5.68434e-14 -90.0002 0 6.36111e-15 -5 17 0 -1.21445 0.437755 5.35114 -6.45 -1.13687e-13 -2.27374e-13 -2.01833 0.543803 -0.356029 -6.45 0 2.27374e-13 -67.5298 -31.0886 -0.873438 -1.13687e-13 -32.4 -2 -5.84958 -63.4485 -10.5745 -1.13687e-13 -25.65 2 -10.1994 16.4174 5.47063 0.5 -1.5 2.65 21.3737 15.0374 9.99506 0 -3.8 3.7 1.12064 11.1457 -0.36111 1.13687e-13 -3 2.7 0.0463577 0.688518 -0.0627592 -2.27374e-13 -1.9 1.6 7.15625e-15 -3.18055e-15 3.18055e-15 0 -8.3 1.9 29.5892 7.74183 -2.19077 0 -4.5 -2.27374e-13 10.2395 -0.00153735 -0.00183047 1.13687e-13 -3.4 -2.27374e-13 8.98343 -0.00209512 -0.00171928 0.25 -2.2 0.4 7.15625e-15 -3.18055e-15 3.18055e-15 0 -8.3 1 32.2676 6.3969 -2.92111 0 -4.65 0 61.296 -0.0040242 -0.000935155 0 -3.3 2.27374e-13 43.1884 -0.00675241 0.00599559 0.5 -2.15 -0.8 7.15625e-15 -3.18055e-15 3.18055e-15 -1.13687e-13 -7.75 -0.2 52.0151 9.54958 -8.2982 -2.27374e-13 -3.8 0 62.1102 0.00321432 0.0008057 -1.13687e-13 -3.4 0 43.9086 -0.00199068 -0.000124017 0.75 -1.75 -1.85 7.15625e-15 -3.18055e-15 3.18055e-15 0 -7.15 -1 64.4977 -6.6346 -1.35445 0 -3 0 25.0385 0.000464277 -0.00342701 0 -2.35 2.27374e-13 19.0804 0.00194337 -0.00313568 8 2.84217e-14 0 3.20098 -21.9149 -38.9257 0 -45 -1 0.439502 20.0141 -3.46315 2.27374e-13 -41 -2 -10.2133 -6.25808 24.3194 2.27374e-13 -7.5 12.5 1.98785e-16 1.83876e-15 -3.18055e-15 0 3.55271e-15 4 14.2395 -4.35976 83.0035 -8 -1.42109e-14 2.27374e-13 3.98025 -13.1134 -19.4964 -2.27374e-13 -45 -1 0.158857 21.9914 -1.1419 0 -41 -2 -3.11142 -13.1363 14.0257 1.13687e-13 -7.5 12.5 -7.95448e-16 -0.00185781 -9.54166e-15 -1.13687e-13 -1.42109e-14 4 2.96588 10.2221 56.0415 
-277.105 90.9074 1549.52 0.338796 -5.40359 136.654 0 8 -2.27374e-13 8.11607 23.3051 3.06976 0 8 0 -1.154 7.51247 1.18266 0 8 -2.27374e-13 -0.557125 3.76355 0.570532 2.27374e-13 8 0 -0.553444 3.7553 0.569206 -1.13687e-13 17 0 -1.1965 3.48994 -3.14152 -1.13687e-13 10.8 0 -2.50308 8.24547 -7.25624 5 17 2.27374e-13 -1.48466 1.5605 -2.49157 6.45 1.13687e-13 2.27374e-13 1.17002 -0.160584 2.80422 6.45 -1.13687e-13 0 -0.968823 10.5262 30.1828 0 -32.4 -2 -16.5458 -81.0517 -90.183 0 -25.65 2 15.4974 -23.7957 -21.4283 -0.5 -1.5 2.65 -27.8263 -57.4437 122.929 0 -3.8 3.7 -0.0171041 32.2739 0.000312552 2.84217e-14 -3 2.7 -0.00707947 30.2377 0.00651027 -1.13687e-13 -1.9 1.6 -0 -3.18055e-15 -0 0 -8.3 1.9 -26.1969 14.4237 3.92305 -2.27374e-13 -4.5 0 -56.9556 0.00172859 -0.00575324 0 -3.4 1.13687e-13 -39.587 0.00490402 -0.0020167 -0.25 -2.2 0.4 -0 -3.18055e-15 -0 0 -8.3 1 -34.6727 15.5887 6.3276 0 -4.65 -5.68434e-14 -71.8895 0.00093981 -0.000300696 0 -3.3 0 -90.0002 -2.22639e-14 3.02153e-14 -0.5 -2.15 -0.8 -0 -3.18055e-15 -0 2.27374e-13 -7.75 -0.2 -71.1764 0.19616 10.2424 -2.27374e-13 -3.8 -5.68434e-14 -1.77358 -0.00269578 0.00188653 2.27374e-13 -3.4 -5.68434e-14 -90.0002 -0.00115967 4.77083e-15 -0.75 -1.75 -1.85 -0 -3.18055e-15 -0 -2.27374e-13 -7.15 -1 -49.4511 11.6903 8.51239 0 -3 0 -62.7588 0.00190209 -0.000756585 -1.13687e-13 -2.35 1.13687e-13 -90.0002 2.8625e-14 -1.59028e-14 -5 17 2.27374e-13 -1.23933 0.451462 5.33253 -6.45 -1.13687e-13 -2.27374e-13 -2.01854 0.542525 -0.355966 -6.45 -1.13687e-13 2.27374e-13 -67.5592 -31.1924 -0.925188 -1.13687e-13 -32.4 -2 -5.87825 -63.2064 -10.6089 -1.13687e-13 -25.65 2 -10.04 16.4408 5.32639 0.5 -1.5 2.65 21.4048 15.0719 10.0016 1.13687e-13 -3.8 3.7 1.13068 11.1099 -0.361425 1.13687e-13 -3 2.7 0.0462728 0.68866 -0.0626832 -1.98952e-13 -1.9 1.6 -7.95139e-16 -9.54166e-15 8.74653e-15 2.84217e-14 -8.3 1.9 29.6344 7.75948 -2.20565 -1.13687e-13 -4.5 0 10.5856 -0.00163339 -0.00188941 1.13687e-13 -3.4 -2.27374e-13 9.25503 -0.00217636 -0.00175602 0.25 -2.2 0.4 -7.95139e-16 -9.54166e-15 8.74653e-15 0 -8.3 1 32.2958 6.41903 -2.93558 0 -4.65 2.27374e-13 61.6872 -0.00393597 -0.00092273 0 -3.3 2.27374e-13 43.5386 -0.00668259 0.00600171 0.5 -2.15 -0.8 -7.95139e-16 -9.54166e-15 8.74653e-15 -1.42109e-13 -7.75 -0.2 52.1643 9.59217 -8.35669 -1.13687e-13 -3.8 0 62.1017 0.00325407 0.000739082 0 -3.4 2.27374e-13 43.9008 -0.00188856 -0.000200151 0.75 -1.75 -1.85 -7.95139e-16 -9.54166e-15 8.74653e-15 0 -7.15 -1 64.749 -6.63527 -1.38402 -1.13687e-13 -3 0 24.9268 0.000177806 -0.00332396 0 -2.35 0 19.0119 0.00182331 -0.00305172 8 1.42109e-14 0 3.19811 -21.9256 -38.931 0 -45 -1 0.438072 19.9779 -3.46205 0 -41 -2 -10.2113 -6.244 24.3175 4.54747e-13 -7.5 12.5 -1.98785e-16 1.59028e-15 -6.36111e-15 0 0 4 14.2382 -4.35032 83.004 -8 0 4.54747e-13 3.97206 -13.1357 -19.4975 -4.54747e-13 -45 -1 0.158738 21.9914 -1.14071 0 -41 -2 -3.11915 -13.1365 14.0255 0 -7.5 12.5 -7.93379e-16 -0.00185781 6.36111e-15 2.27374e-13 -1.42664e-14 4 2.96549 10.2323 56.0441 
